<mxfile host="app.diagrams.net" modified="2024-02-03T18:55:10.308Z" agent="Mozilla/5.0 (Macintosh; Intel Mac OS X 10_15_7) AppleWebKit/537.36 (KHTML, like Gecko) Chrome/121.0.0.0 Safari/537.36" version="23.1.0" etag="LOtTwncvZ5YY4WTjJsqv" type="github">
  <diagram name="Page-1" id="gJCDHmZN_dFeJVQg9kTI">
    <mxGraphModel>
      <root>
        <mxCell id="0" />
        <mxCell id="1" parent="0" />
        <mxCell id="2" value="Nodo: Inicio" style="shape=cylinder3;boundedLbl=1;backgroundOutline=1;size=10;strokeWidth=2;whiteSpace=wrap;" vertex="1" parent="1">
          <mxGeometry y="162" width="101" height="67" as="geometry" />
        </mxCell>
        <mxCell id="3" value="Nodo: Ingreso URL" style="ellipse;aspect=fixed;strokeWidth=2;whiteSpace=wrap;" vertex="1" parent="1">
          <mxGeometry x="160" y="123" width="146" height="146" as="geometry" />
        </mxCell>
        <mxCell id="4" value="Nodo: Validación de URL" style="ellipse;aspect=fixed;strokeWidth=2;whiteSpace=wrap;" vertex="1" parent="1">
          <mxGeometry x="356" y="101" width="190" height="190" as="geometry" />
        </mxCell>
        <mxCell id="5" value="Nodo: Interfaz Streamlit" style="ellipse;aspect=fixed;strokeWidth=2;whiteSpace=wrap;" vertex="1" parent="1">
          <mxGeometry x="606" width="190" height="190" as="geometry" />
        </mxCell>
        <mxCell id="6" value="Nodo: Análisis" style="ellipse;aspect=fixed;strokeWidth=2;whiteSpace=wrap;" vertex="1" parent="1">
          <mxGeometry x="643" y="240" width="115" height="115" as="geometry" />
        </mxCell>
        <mxCell id="7" value="V" style="curved=1;startArrow=none;endArrow=block;exitX=0.9982982673267327;exitY=0.50390625;entryX=0.001605308219178082;entryY=0.4983679366438356;" edge="1" parent="1" source="2" target="3">
          <mxGeometry relative="1" as="geometry">
            <Array as="points" />
          </mxGeometry>
        </mxCell>
        <mxCell id="8" value="" style="curved=1;startArrow=none;endArrow=block;exitX=1.000535102739726;exitY=0.4983679366438356;entryX=0.00041118421052631577;entryY=0.4987458881578947;" edge="1" parent="1" source="3" target="4">
          <mxGeometry relative="1" as="geometry">
            <Array as="points" />
          </mxGeometry>
        </mxCell>
        <mxCell id="9" value="V" style="curved=1;startArrow=none;endArrow=block;exitX=1.000575657894737;exitY=0.09375257827232986;entryX=-0.002549342105263158;entryY=0.49872532894736843;" edge="1" parent="1" source="4" target="5">
          <mxGeometry relative="1" as="geometry">
            <Array as="points">
              <mxPoint x="576" y="95" />
            </Array>
          </mxGeometry>
        </mxCell>
        <mxCell id="10" value="V" style="curved=1;startArrow=none;endArrow=block;exitX=1.000575657894737;exitY=0.9037391980434596;entryX=0.00020380434782608695;entryY=0.4936141304347826;" edge="1" parent="1" source="4" target="6">
          <mxGeometry relative="1" as="geometry">
            <Array as="points">
              <mxPoint x="576" y="297" />
            </Array>
          </mxGeometry>
        </mxCell>
      </root>
    </mxGraphModel>
  </diagram>
</mxfile>
